<svg xmlns="http://www.w3.org/2000/svg" width="38" height="85" stroke="none" stroke-linecap="round" stroke-linejoin="round" fill="#fff" fill-rule="nonzero"><path d="M18.6342.2298l2.2455 4.2175a12.603 12.603 0 0 0 1.6959 2.1087c1.88 1.88 3.6654 3.8493 5.2692 5.9581 3.8048 4.9957 6.3709 10.5173 8.2035 16.5438 1.0991 3.6653 1.6961 7.4252 1.7407 11.2273.184 11.3666-3.7127 21.1267-11.5691 29.2382a33.382 33.382 0 0 1-4.1281 3.5286c-.7783 0-1.1464-.5969-1.467-1.1464-.597-1.007-.9624-2.1561-1.1464-3.2998-.2761-1.3752-.4576-2.7503-.3681-4.1702v-.6415c-.0633-.163-.7494-63.2672-.4761-63.5643z" fill="#599636"/><path d="M18.6343.0905c-.092-.1841-.184-.0447-.2761.0447.0447.9202-.276 1.7406-.7783 2.5241-.526.7783-1.2831 1.3752-2.0167 2.0167-4.0754 3.5286-7.2832 7.7908-9.8521 12.5578C2.293 23.6493.5313 30.5251.0318 37.7636-.197 40.3746.8574 49.5878 1.6803 52.246c2.2454 7.0572 6.2789 12.9706 11.5034 18.103 1.283 1.2358 2.6293 2.3822 4.0755 3.4839.4128 0 .4573-.3681.5258-.6415.1809-.5852.319-1.1827.4128-1.788l.9203-6.8731L18.6343.0905z" fill="#6cac48"/><path d="M20.8798 75.8444c.092-1.0517.5969-1.9247 1.1464-2.795-.5259-.2287-.9623-.6836-1.2831-1.1911-.2761-.4575-.5049-1.007-.6837-1.5119-.6415-1.9246-.7782-3.944-.9623-5.9107v-1.1911c-.2287.1841-.2761 1.7406-.2761 1.972a45.663 45.663 0 0 1-.8256 6.1868c-.1367.8257-.2287 1.6486-.7362 2.3822 0 .092 0 .1841.0447.3208.8256 2.4295 1.0517 4.9037 1.1911 7.4253v.9202c0 1.0991-.0447.8677.8677 1.2358.3681.1367.7783.1841 1.1464.4575.276 0 .3207-.2287.3207-.4128l-.1367-1.5119v-4.2174c-.0447-.7362.092-1.4672.1841-2.1561z" fill="#c2bfbf"/></svg>